<svg width="82" height="77" viewBox="0 0 82 77" fill="none" xmlns="http://www.w3.org/2000/svg">
<path d="M5.79545 76.4545V24.0909H19.6364V33.3295H20.25C21.3409 30.2614 23.1591 27.8409 25.7045 26.0682C28.25 24.2955 31.2955 23.4091 34.8409 23.4091C38.4318 23.4091 41.4886 24.3068 44.0114 26.1023C46.5341 27.875 48.2159 30.2841 49.0568 33.3295H49.6023C50.6705 30.3295 52.6023 27.9318 55.3977 26.1364C58.2159 24.3182 61.5455 23.4091 65.3864 23.4091C70.2727 23.4091 74.2386 24.9659 77.2841 28.0795C80.3523 31.1705 81.8864 35.5568 81.8864 41.2386V76.4545H67.3977V44.1023C67.3977 41.1932 66.625 39.0114 65.0795 37.5568C63.5341 36.1023 61.6023 35.375 59.2841 35.375C56.6477 35.375 54.5909 36.2159 53.1136 37.8977C51.6364 39.5568 50.8977 41.75 50.8977 44.4773V76.4545H36.8182V43.7955C36.8182 41.2273 36.0795 39.1818 34.6023 37.6591C33.1477 36.1364 31.2273 35.375 28.8409 35.375C27.2273 35.375 25.7727 35.7841 24.4773 36.6023C23.2045 37.3977 22.1932 38.5227 21.4432 39.9773C20.6932 41.4091 20.3182 43.0909 20.3182 45.0227V76.4545H5.79545Z" fill="#1E1E1E"/>
<circle cx="8" cy="8" r="8" fill="#E02D71"/>
</svg>